<svg id="visual" viewBox="0 0 960 300" width="960" height="300" xmlns="http://www.w3.org/2000/svg" xmlns:xlink="http://www.w3.org/1999/xlink" version="1.1"><rect x="0" y="0" width="960" height="300" fill="#1f1f38"></rect><path d="M0 120L16 122.2C32 124.3 64 128.7 96 132.2C128 135.7 160 138.3 192 143.8C224 149.3 256 157.7 288 154.5C320 151.3 352 136.7 384 129.5C416 122.3 448 122.7 480 127.8C512 133 544 143 576 143.5C608 144 640 135 672 130C704 125 736 124 768 123.8C800 123.7 832 124.3 864 130.3C896 136.3 928 147.7 944 153.3L960 159L960 301L944 301C928 301 896 301 864 301C832 301 800 301 768 301C736 301 704 301 672 301C640 301 608 301 576 301C544 301 512 301 480 301C448 301 416 301 384 301C352 301 320 301 288 301C256 301 224 301 192 301C160 301 128 301 96 301C64 301 32 301 16 301L0 301Z" fill="#1f1f38"></path><path d="M0 175L16 169.5C32 164 64 153 96 153.3C128 153.7 160 165.3 192 167.5C224 169.7 256 162.3 288 156.3C320 150.3 352 145.7 384 146.7C416 147.7 448 154.3 480 153.2C512 152 544 143 576 143.8C608 144.7 640 155.3 672 160C704 164.7 736 163.3 768 163.2C800 163 832 164 864 165C896 166 928 167 944 167.5L960 168L960 301L944 301C928 301 896 301 864 301C832 301 800 301 768 301C736 301 704 301 672 301C640 301 608 301 576 301C544 301 512 301 480 301C448 301 416 301 384 301C352 301 320 301 288 301C256 301 224 301 192 301C160 301 128 301 96 301C64 301 32 301 16 301L0 301Z" fill="#222345"></path><path d="M0 192L16 190.7C32 189.3 64 186.7 96 185.5C128 184.3 160 184.7 192 183.5C224 182.3 256 179.7 288 178.3C320 177 352 177 384 178.8C416 180.7 448 184.3 480 180.7C512 177 544 166 576 164.2C608 162.3 640 169.7 672 174.5C704 179.3 736 181.7 768 177.7C800 173.7 832 163.3 864 160C896 156.7 928 160.3 944 162.2L960 164L960 301L944 301C928 301 896 301 864 301C832 301 800 301 768 301C736 301 704 301 672 301C640 301 608 301 576 301C544 301 512 301 480 301C448 301 416 301 384 301C352 301 320 301 288 301C256 301 224 301 192 301C160 301 128 301 96 301C64 301 32 301 16 301L0 301Z" fill="#252652"></path><path d="M0 194L16 192.5C32 191 64 188 96 185C128 182 160 179 192 180.8C224 182.7 256 189.3 288 188.2C320 187 352 178 384 176.7C416 175.3 448 181.7 480 185.3C512 189 544 190 576 188.2C608 186.3 640 181.7 672 182.5C704 183.3 736 189.7 768 190.5C800 191.3 832 186.7 864 185.8C896 185 928 188 944 189.5L960 191L960 301L944 301C928 301 896 301 864 301C832 301 800 301 768 301C736 301 704 301 672 301C640 301 608 301 576 301C544 301 512 301 480 301C448 301 416 301 384 301C352 301 320 301 288 301C256 301 224 301 192 301C160 301 128 301 96 301C64 301 32 301 16 301L0 301Z" fill="#28295f"></path><path d="M0 193L16 192.8C32 192.7 64 192.3 96 193.2C128 194 160 196 192 196.2C224 196.3 256 194.7 288 192.3C320 190 352 187 384 189.7C416 192.3 448 200.7 480 205.8C512 211 544 213 576 213.7C608 214.3 640 213.7 672 209.8C704 206 736 199 768 197.8C800 196.7 832 201.3 864 201C896 200.7 928 195.3 944 192.7L960 190L960 301L944 301C928 301 896 301 864 301C832 301 800 301 768 301C736 301 704 301 672 301C640 301 608 301 576 301C544 301 512 301 480 301C448 301 416 301 384 301C352 301 320 301 288 301C256 301 224 301 192 301C160 301 128 301 96 301C64 301 32 301 16 301L0 301Z" fill="#2c2c6c"></path><path d="M0 206L16 207.2C32 208.3 64 210.7 96 212.3C128 214 160 215 192 217.7C224 220.3 256 224.7 288 221.3C320 218 352 207 384 204.2C416 201.3 448 206.7 480 206.7C512 206.7 544 201.3 576 202.2C608 203 640 210 672 212C704 214 736 211 768 211.7C800 212.3 832 216.7 864 217.3C896 218 928 215 944 213.5L960 212L960 301L944 301C928 301 896 301 864 301C832 301 800 301 768 301C736 301 704 301 672 301C640 301 608 301 576 301C544 301 512 301 480 301C448 301 416 301 384 301C352 301 320 301 288 301C256 301 224 301 192 301C160 301 128 301 96 301C64 301 32 301 16 301L0 301Z" fill="#2c2c6c"></path><path d="M0 229L16 230.2C32 231.3 64 233.7 96 232.3C128 231 160 226 192 223.5C224 221 256 221 288 221C320 221 352 221 384 221.7C416 222.3 448 223.7 480 221.8C512 220 544 215 576 217.7C608 220.3 640 230.7 672 232.2C704 233.7 736 226.3 768 223.5C800 220.7 832 222.3 864 221.5C896 220.7 928 217.3 944 215.7L960 214L960 301L944 301C928 301 896 301 864 301C832 301 800 301 768 301C736 301 704 301 672 301C640 301 608 301 576 301C544 301 512 301 480 301C448 301 416 301 384 301C352 301 320 301 288 301C256 301 224 301 192 301C160 301 128 301 96 301C64 301 32 301 16 301L0 301Z" fill="#2c2c6c"></path><path d="M0 235L16 237.2C32 239.3 64 243.7 96 243.5C128 243.3 160 238.7 192 237.3C224 236 256 238 288 237.8C320 237.7 352 235.3 384 233.7C416 232 448 231 480 232.3C512 233.7 544 237.3 576 239.3C608 241.3 640 241.7 672 240.8C704 240 736 238 768 237.7C800 237.3 832 238.7 864 238.2C896 237.7 928 235.3 944 234.2L960 233L960 301L944 301C928 301 896 301 864 301C832 301 800 301 768 301C736 301 704 301 672 301C640 301 608 301 576 301C544 301 512 301 480 301C448 301 416 301 384 301C352 301 320 301 288 301C256 301 224 301 192 301C160 301 128 301 96 301C64 301 32 301 16 301L0 301Z" fill="#28295f"></path><path d="M0 256L16 256.7C32 257.3 64 258.7 96 260C128 261.3 160 262.7 192 260.7C224 258.7 256 253.3 288 252.2C320 251 352 254 384 254.3C416 254.7 448 252.3 480 250.2C512 248 544 246 576 244.8C608 243.7 640 243.3 672 243.5C704 243.7 736 244.3 768 245.8C800 247.3 832 249.7 864 249.2C896 248.7 928 245.3 944 243.7L960 242L960 301L944 301C928 301 896 301 864 301C832 301 800 301 768 301C736 301 704 301 672 301C640 301 608 301 576 301C544 301 512 301 480 301C448 301 416 301 384 301C352 301 320 301 288 301C256 301 224 301 192 301C160 301 128 301 96 301C64 301 32 301 16 301L0 301Z" fill="#252652"></path><path d="M0 264L16 265C32 266 64 268 96 269.8C128 271.7 160 273.3 192 273C224 272.7 256 270.3 288 268.8C320 267.3 352 266.7 384 266.7C416 266.7 448 267.3 480 266.3C512 265.3 544 262.7 576 262.8C608 263 640 266 672 268.7C704 271.3 736 273.7 768 274.2C800 274.7 832 273.3 864 273.7C896 274 928 276 944 277L960 278L960 301L944 301C928 301 896 301 864 301C832 301 800 301 768 301C736 301 704 301 672 301C640 301 608 301 576 301C544 301 512 301 480 301C448 301 416 301 384 301C352 301 320 301 288 301C256 301 224 301 192 301C160 301 128 301 96 301C64 301 32 301 16 301L0 301Z" fill="#222345"></path><path d="M0 274L16 276.5C32 279 64 284 96 285C128 286 160 283 192 280.8C224 278.7 256 277.3 288 278.7C320 280 352 284 384 286.2C416 288.3 448 288.7 480 286.5C512 284.3 544 279.7 576 279.8C608 280 640 285 672 287C704 289 736 288 768 286.7C800 285.3 832 283.7 864 281.5C896 279.3 928 276.7 944 275.3L960 274L960 301L944 301C928 301 896 301 864 301C832 301 800 301 768 301C736 301 704 301 672 301C640 301 608 301 576 301C544 301 512 301 480 301C448 301 416 301 384 301C352 301 320 301 288 301C256 301 224 301 192 301C160 301 128 301 96 301C64 301 32 301 16 301L0 301Z" fill="#1f1f38"></path></svg>